# xmcd CD database file
#
# Track frame offsets:
#	150
#	42208
#	73438
#	101285
#	122625
#	152883
#	183690
#	218658
#	248503
#	264670
#
# Disc length: 3917 seconds
#
# Revision: 0
# Processed by: cddbd v1.5.2PL0 Copyright (c) Steve Scherf et al.
# Submitted via: CDex 1.70beta2
#
DISCID=8d0f4b0a
DTITLE=矢野沙織 - Groovin' High
DYEAR=2006
DGENRE=Jazz
TTITLE0=Speak Low
TTITLE1=Manteca
TTITLE2=My Ideal
TTITLE3=Greenism
TTITLE4=Over The Rainbow
TTITLE5=Groovin' High
TTITLE6=Corcovado
TTITLE7=There Will Never Be Another You
TTITLE8=Billie's Bounce
TTITLE9=浜辺の歌
EXTD=YEAR: 2006
EXTT0=
EXTT1=
EXTT2=
EXTT3=
EXTT4=
EXTT5=
EXTT6=
EXTT7=
EXTT8=
EXTT9=
PLAYORDER=
